{"glyphs":{":":{"x_min":0,"x_max":202,"ha":202,"o":"m 191 433 q 191 398 162 376 q 132 353 94 353 q 56 353 28 376 q 0 398 0 433 q 0 467 26 490 q 52 512 89 514 q 129 516 160 493 q 191 470 191 433 z m 191 169 q 190 134 161 114 q 132 93 94 93 q 57 93 29 114 q 1 135 0 169 q -1 203 26 226 q 52 249 89 251 q 129 253 160 230 q 192 206 191 169 z"},"$":{"x_min":0,"x_max":547,"ha":547,"o":"m 531 259 q 531 219 488 189 q 449 164 409 140 q 366 110 366 71 q 366 62 370 45 q 375 28 375 19 q 375 -10 340 -28 q 312 -42 279 -42 q 251 -42 226 -30 q 194 -16 194 9 q 194 16 199 30 q 204 43 204 51 q 204 76 170 76 q 163 76 149 74 q 135 73 128 73 q 78 73 42 93 q 0 118 0 165 q 0 187 8 203 q 19 224 39 224 q 59 224 115 196 q 171 167 203 167 q 245 167 292 194 q 345 226 345 266 q 345 296 287 327 q 245 348 203 370 q 145 406 87 442 q 15 492 15 543 q 15 584 62 612 q 106 632 150 653 q 197 680 197 719 q 197 724 196 734 q 194 744 194 749 q 194 777 226 792 q 252 804 283 804 q 311 804 337 793 q 370 779 370 754 q 370 749 367 740 q 364 731 364 727 q 364 707 386 703 q 391 702 423 702 q 452 702 476 676 q 500 651 500 621 q 500 602 491 587 q 480 569 463 569 q 446 569 400 595 q 353 621 326 621 q 285 621 244 597 q 196 571 196 533 q 196 505 255 479 q 297 461 339 443 q 398 405 458 368 q 531 315 531 259 z"},"?":{"x_min":0,"x_max":523,"ha":523,"o":"m 510 567 q 510 519 463 470 q 424 429 385 389 q 357 360 330 331 q 296 295 296 261 q 296 257 298 249 q 299 241 299 237 q 299 212 276 198 q 257 186 231 186 q 197 186 170 204 q 143 223 143 256 q 143 261 151 308 q 159 352 207 392 q 249 422 292 454 q 336 485 336 515 q 336 560 280 596 q 230 628 182 628 q 156 628 112 600 q 69 571 51 571 q 29 571 13 597 q 0 620 0 644 q 0 679 23 719 q 51 768 117 768 q 129 768 237 752 q 354 735 414 706 q 510 658 510 567 z m 321 69 q 321 33 292 12 q 262 -8 224 -8 q 189 -8 161 14 q 133 35 133 69 q 133 103 161 124 q 189 146 224 146 q 261 146 289 127 q 321 105 321 69 z"},"<":{"x_min":0,"x_max":579,"ha":579,"o":"m 565 133 q 565 117 546 100 q 526 83 510 83 q 494 83 461 99 q 428 115 408 115 q 252 115 139 175 q -3 249 -3 391 q -3 533 146 601 q 258 653 420 653 q 442 653 474 672 q 505 690 518 690 q 532 690 547 676 q 562 662 562 649 q 562 644 556 619 q 538 547 436 521 q 347 504 258 488 q 166 463 166 391 q 166 320 259 295 q 348 278 438 261 q 542 235 559 163 q 565 138 565 133 z"},"'":{"x_min":0,"x_max":151,"ha":151,"o":"m 119 639 q 119 619 126 584 q 134 549 134 538 q 134 504 92 504 q 0 504 0 639 q 0 763 92 763 q 134 763 134 734 q 134 725 126 692 q 119 660 119 639 z"},"=":{"x_min":0,"x_max":455,"ha":455,"o":"m 441 497 q 441 437 391 437 q 362 437 304 449 q 247 461 217 461 q 187 461 131 449 q 75 437 48 437 q 0 437 0 497 q 0 554 43 554 q 69 554 128 538 q 188 522 221 522 q 254 522 313 538 q 372 554 398 554 q 441 554 441 497 z m 442 284 q 442 224 391 224 q 362 224 305 236 q 248 249 217 249 q 188 249 132 236 q 76 224 48 224 q 0 224 0 284 q 0 341 43 341 q 70 341 129 326 q 188 310 221 310 q 254 310 313 326 q 372 341 399 341 q 442 341 442 284 z"},"a":{"x_min":0,"x_max":532,"ha":532,"o":"m 523 74 q 523 24 491 8 q 435 -20 394 -20 q 350 -20 350 20 q 350 25 352 34 q 353 43 353 48 q 353 78 332 78 q 317 78 264 38 q 211 -1 179 -1 q 108 -1 52 62 q -2 122 -2 194 q -2 286 105 345 q 194 394 295 394 q 303 394 318 388 q 333 382 340 382 q 354 382 354 399 q 354 449 306 478 q 266 503 213 503 q 183 503 144 459 q 104 415 79 415 q 57 415 42 430 q 28 444 28 466 q 28 499 51 539 q 78 586 140 586 q 169 586 244 573 q 357 554 385 540 q 442 511 469 427 q 481 390 481 346 q 481 326 478 286 q 475 245 475 225 q 475 212 495 175 q 517 135 519 122 q 523 97 523 74 z m 297 194 q 297 220 280 237 q 264 254 237 254 q 181 254 138 238 q 77 216 77 170 q 77 128 114 102 q 146 80 190 80 q 234 80 266 114 q 297 149 297 194 z"},"L":{"x_min":0,"x_max":541,"ha":541,"o":"m 532 147 q 533 105 520 80 q 505 60 491 41 q 458 -3 353 -3 q 331 -3 288 -2 q 244 0 222 0 q 133 0 75 32 q 3 72 3 154 q 3 210 38 317 q 72 424 72 481 q 72 518 54 589 q 37 660 37 697 q 37 804 155 804 q 305 804 305 703 q 305 641 255 543 q 208 459 161 374 q 111 276 111 213 q 111 165 140 134 q 169 104 216 104 q 251 104 318 159 q 385 214 419 214 q 456 214 487 202 q 531 184 532 147 z"},"3":{"x_min":0,"x_max":540,"ha":540,"o":"m 528 187 q 528 98 433 62 q 400 49 259 27 q 244 25 194 11 q 153 0 128 0 q 58 0 23 67 q 0 110 0 145 q 0 170 15 196 q 30 221 53 221 q 72 221 144 163 q 216 105 246 105 q 303 105 356 134 q 418 169 418 222 q 418 262 330 262 q 320 262 303 262 q 287 261 283 261 q 226 261 204 270 q 168 284 168 332 q 168 377 192 413 q 212 442 269 451 q 315 456 360 462 q 406 469 406 497 q 406 545 351 582 q 301 616 251 616 q 223 616 150 612 q 77 607 60 607 q 41 607 30 628 q 20 645 20 665 q 20 705 64 757 q 102 805 174 805 q 196 805 266 796 q 539 764 539 618 q 539 568 510 528 q 482 497 455 466 q 426 428 426 384 q 426 336 452 312 q 477 292 502 273 q 528 244 528 187 z"},";":{"x_min":0,"x_max":211,"ha":211,"o":"m 193 432 q 193 396 164 374 q 135 352 98 352 q 61 352 34 373 q 3 396 3 432 q 3 468 32 490 q 61 513 98 513 q 135 513 164 490 q 193 468 193 432 z m 197 23 q 197 -43 127 -94 q 62 -142 -6 -142 q -18 -142 -31 -137 q -47 -130 -47 -120 q -47 -109 2 -73 q 52 -37 52 -11 q 52 8 26 28 q 0 49 0 66 q 0 102 29 126 q 56 147 93 147 q 134 147 167 105 q 197 65 197 23 z"},"J":{"x_min":0,"x_max":486,"ha":486,"o":"m 477 435 q 477 373 462 313 q 426 164 390 114 q 337 42 206 13 q 145 0 109 0 q 59 0 30 38 q 2 73 2 124 q 2 176 50 181 q 67 186 118 186 q 128 186 162 146 q 198 103 215 97 q 266 109 303 146 q 340 184 354 236 q 357 247 357 300 q 357 347 316 423 q 278 491 240 559 q 199 641 199 702 q 199 753 250 781 q 292 804 348 804 q 473 804 473 581 q 473 556 475 508 q 477 459 477 435 z"},"V":{"x_min":0,"x_max":733,"ha":733,"o":"m 733 712 q 733 660 687 554 q 625 414 619 393 q 610 352 591 269 q 560 133 525 82 q 469 0 353 0 q 332 0 280 34 q 227 68 214 87 q 177 142 147 226 q 133 265 101 374 q 101 376 39 543 q 0 649 0 713 q 0 747 18 774 q 35 802 68 802 q 131 802 173 784 q 231 759 231 705 q 231 671 223 604 q 215 536 215 502 q 215 409 268 290 q 331 149 409 149 q 485 149 519 235 q 543 295 543 385 q 543 406 542 448 q 540 491 540 512 q 540 565 547 605 q 564 702 569 718 q 593 787 644 787 q 733 787 733 712 z"},"\"":{"x_min":0,"x_max":349,"ha":349,"o":"m 337 641 q 337 504 243 504 q 204 504 204 532 q 204 543 215 581 q 226 619 226 641 q 226 664 216 698 q 205 732 205 741 q 205 764 243 764 q 337 764 337 641 z m 119 639 q 119 619 126 584 q 134 549 134 538 q 134 504 92 504 q 0 504 0 639 q 0 763 92 763 q 134 763 134 734 q 134 725 126 692 q 119 660 119 639 z"},"7":{"x_min":0,"x_max":605,"ha":605,"o":"m 605 708 q 605 648 536 492 q 466 337 466 288 q 466 266 478 226 q 490 186 490 163 q 490 79 445 42 q 409 13 319 -1 q 308 -2 292 -2 q 204 -2 169 4 q 87 20 87 71 q 87 121 177 202 q 262 275 346 347 q 437 432 437 491 q 437 530 404 554 q 372 578 332 578 q 290 578 214 547 q 138 516 97 516 q 59 516 28 581 q 0 638 0 681 q 0 803 86 803 q 126 803 203 782 q 280 762 320 762 q 351 762 410 778 q 470 794 500 794 q 539 794 570 770 q 605 745 605 708 z"},"S":{"x_min":0,"x_max":553,"ha":553,"o":"m 541 212 q 541 202 539 194 q 524 123 479 86 q 443 57 375 42 q 310 31 244 20 q 132 0 111 0 q 59 0 28 35 q -3 70 -3 123 q -3 149 11 172 q 27 200 51 200 q 71 200 118 173 q 164 146 192 146 q 202 146 240 144 q 279 143 303 143 q 433 143 433 191 q 433 235 325 290 q 225 339 125 388 q 17 449 17 508 q 17 519 21 533 q 49 636 110 704 q 179 780 270 791 q 381 804 397 804 q 452 804 494 754 q 514 731 514 679 q 514 613 475 613 q 459 613 420 638 q 380 662 356 662 q 316 662 278 586 q 243 517 243 465 q 243 424 320 387 q 392 353 464 320 q 541 274 541 212 z"},"}":{"x_min":0,"x_max":321,"ha":321,"o":"m 305 293 q 305 262 288 250 q 282 246 254 238 q 232 232 225 216 q 218 200 218 141 q 218 120 222 101 q 226 82 226 60 q 226 31 220 0 q 216 -25 213 -49 q 209 -76 193 -92 q 174 -111 144 -113 q 115 -115 87 -115 q 79 -116 63 -120 q 47 -125 38 -125 q 21 -125 10 -109 q 0 -93 0 -76 q 0 -44 26 -44 q 29 -44 36 -46 q 44 -47 48 -47 q 75 -47 84 -36 q 97 -21 97 66 q 97 91 92 118 q 88 145 88 171 q 88 238 97 258 q 104 274 129 274 q 138 274 158 271 q 177 268 187 268 q 213 268 213 294 q 213 320 187 320 q 177 320 158 316 q 138 313 128 313 q 104 313 97 327 q 95 333 92 362 q 89 387 89 408 q 89 434 94 510 q 100 585 100 611 q 100 630 94 670 q 88 717 82 723 q 73 731 48 731 q 45 731 38 730 q 31 728 27 728 q 3 728 3 758 q 3 775 13 790 q 23 804 39 804 q 48 804 64 800 q 80 795 87 794 q 94 794 128 794 q 185 794 202 761 q 205 756 220 681 q 227 646 227 612 q 227 590 224 522 q 220 453 220 431 q 220 377 223 369 q 228 354 250 348 q 281 341 287 337 q 305 325 305 293 z"},"Z":{"x_min":0,"x_max":616,"ha":616,"o":"m 602 713 q 602 648 478 534 q 363 437 248 340 q 124 232 124 181 q 124 148 148 128 q 172 109 206 109 q 252 109 370 162 q 487 216 532 216 q 567 216 586 183 q 602 156 602 117 q 602 76 589 40 q 575 0 523 0 q 478 0 394 26 q 311 52 267 52 q 149 7 90 7 q 54 7 27 40 q 0 72 0 109 q 0 179 78 264 q 150 333 222 402 q 299 478 299 527 q 299 558 259 593 q 219 628 188 628 q 155 628 135 610 q 115 592 83 592 q 39 592 39 680 q 39 731 77 783 q 95 807 125 807 q 170 807 256 780 q 341 754 386 754 q 406 754 452 778 q 498 803 523 803 q 555 803 578 774 q 602 746 602 713 z"},"x":{"x_min":0,"x_max":598,"ha":598,"o":"m 580 76 q 580 48 546 24 q 511 0 481 0 q 441 0 409 15 q 369 34 369 70 q 369 79 356 105 q 343 131 343 140 q 343 166 291 166 q 251 166 230 124 q 209 83 189 43 q 156 0 92 0 q 55 0 26 23 q -2 46 -2 82 q -2 134 64 157 q 125 172 187 187 q 253 207 253 253 q 253 300 187 346 q 173 356 66 414 q 0 450 0 473 q 0 512 13 548 q 30 596 63 596 q 71 596 87 596 q 103 597 112 597 q 144 597 161 590 q 191 577 212 517 q 228 466 244 415 q 265 363 300 363 q 322 363 340 376 q 358 389 358 410 q 358 425 364 453 q 369 481 369 496 q 369 552 401 572 q 446 600 485 600 q 577 600 577 509 q 577 477 522 430 q 471 387 421 344 q 366 290 366 242 q 366 177 421 155 q 473 145 524 134 q 580 121 580 76 z"},")":{"x_min":0,"x_max":327,"ha":327,"o":"m 310 254 q 310 96 275 14 q 224 -110 90 -110 q 0 -110 0 -57 q 0 -20 47 61 q 134 209 135 211 q 182 303 182 366 q 182 425 137 509 q 135 512 52 647 q 7 721 7 755 q 7 802 90 802 q 191 802 243 726 q 283 666 297 554 q 300 524 306 373 q 310 297 310 254 z"},"&":{"x_min":0,"x_max":792,"ha":792,"o":"m 783 38 q 783 13 752 -4 q 725 -20 698 -20 q 645 -20 582 17 q 570 24 533 67 q 506 99 471 99 q 439 99 378 52 q 317 6 276 6 q 174 6 91 65 q 0 130 0 228 q 0 270 39 305 q 76 334 112 362 q 151 397 151 438 q 151 473 114 517 q 76 561 76 596 q 76 678 153 728 q 220 771 307 771 q 393 771 459 725 q 533 674 533 592 q 533 552 489 523 q 448 501 407 479 q 364 451 364 414 q 364 366 399 310 q 439 248 484 248 q 524 248 545 287 q 553 302 569 360 q 572 372 572 384 q 572 395 569 416 q 566 436 566 446 q 566 494 623 494 q 654 494 683 470 q 712 445 712 415 q 712 395 698 363 q 686 337 675 311 q 668 294 630 247 q 599 209 599 178 q 599 142 647 116 q 691 98 735 80 q 783 60 783 38 z m 322 613 q 322 650 300 677 q 277 704 241 704 q 207 704 185 671 q 166 643 166 607 q 166 572 185 547 q 206 519 240 519 q 274 519 298 549 q 322 579 322 613 z m 426 166 q 426 219 372 266 q 319 312 266 312 q 220 312 184 275 q 148 238 148 192 q 148 133 198 101 q 240 74 303 74 q 349 74 385 97 q 426 123 426 166 z"},"_":{"x_min":0,"x_max":552,"ha":552,"o":"m 562 -179 l 1 -179 l 1 -133 l 562 -133 z"},"v":{"x_min":0,"x_max":579,"ha":579,"o":"m 563 515 q 563 473 521 352 q 468 200 462 178 q 438 85 404 48 q 361 0 273 0 q 256 0 218 23 q 179 46 167 61 q 140 94 116 158 q 112 169 81 264 q 57 326 33 389 q 3 469 3 515 q 3 540 17 559 q 31 578 55 578 q 180 578 180 510 q 180 483 174 431 q 168 379 168 353 q 168 283 199 204 q 239 105 297 105 q 379 105 412 241 q 433 324 433 446 q 433 568 495 568 q 563 568 563 515 z"},"O":{"x_min":0,"x_max":687,"ha":687,"o":"m 676 405 q 676 248 588 130 q 492 0 340 0 q 187 0 89 129 q 0 246 0 405 q 0 560 91 677 q 189 804 340 804 q 490 804 587 676 q 676 559 676 405 z m 582 340 q 582 446 557 519 q 520 627 438 627 q 349 627 288 530 q 236 447 236 357 q 236 242 254 184 q 283 85 368 85 q 457 85 523 176 q 582 258 582 340 z"},"(":{"x_min":0,"x_max":326,"ha":326,"o":"m 309 -56 q 309 -109 220 -109 q 85 -109 34 15 q 0 97 0 255 q 0 298 3 374 q 9 524 13 555 q 26 667 67 727 q 118 803 220 803 q 303 803 303 756 q 303 722 257 648 q 174 513 173 510 q 127 426 127 367 q 127 304 174 212 q 175 210 262 62 q 309 -19 309 -56 z"},"C":{"x_min":0,"x_max":603,"ha":603,"o":"m 596 133 q 596 93 569 49 q 540 2 476 2 q 461 2 349 19 q 196 43 100 145 q 0 250 0 403 q 0 556 103 669 q 209 786 360 784 l 382 784 q 440 783 447 782 q 480 777 504 755 q 554 709 554 664 q 554 645 542 628 q 531 611 514 611 q 499 611 462 634 q 425 656 402 655 l 396 655 q 301 650 241 574 q 184 502 184 403 q 184 307 253 231 q 322 155 417 155 q 443 155 484 181 q 524 207 541 207 q 565 207 582 181 q 596 158 596 133 z"},"W":{"x_min":0,"x_max":1022,"ha":1022,"o":"m 1022 714 q 1022 660 1003 583 q 986 519 969 455 q 951 385 951 355 q 951 335 952 295 q 953 255 953 234 q 953 130 919 86 q 885 42 782 16 q 728 3 691 3 q 628 3 613 14 q 593 28 593 86 q 593 118 608 150 q 624 183 624 216 q 624 310 554 310 q 484 310 484 215 q 484 190 492 159 q 499 128 499 104 q 499 33 445 13 q 417 3 330 3 q 292 3 238 16 q 133 42 96 96 q 66 139 66 226 q 66 244 68 287 q 69 330 69 355 q 69 385 52 454 q 36 518 19 582 q 0 659 0 713 q 0 776 38 789 q 84 804 132 804 q 207 804 268 715 q 325 634 325 556 q 325 506 308 408 q 290 310 290 261 q 290 163 364 163 q 438 163 438 261 q 438 295 422 356 q 405 418 405 452 q 405 528 441 562 q 477 596 554 596 q 632 596 668 562 q 703 527 703 451 q 703 418 686 358 q 669 299 669 266 q 669 168 742 168 q 816 168 816 266 q 816 315 799 411 q 782 507 782 556 q 782 804 890 804 q 937 804 984 789 q 1022 776 1022 714 z"},"A":{"x_min":0,"x_max":780,"ha":780,"o":"m 769 99 q 769 43 724 25 q 657 -1 604 -1 q 569 -1 569 44 q 569 83 589 132 q 589 182 549 209 q 514 233 462 233 q 422 233 365 220 q 296 205 278 184 q 261 162 258 104 q 254 45 234 25 q 207 0 168 0 q 117 0 52 25 q 4 44 4 104 q 4 145 79 257 q 154 369 157 413 q 158 423 158 442 q 158 458 157 491 q 156 524 156 540 q 156 673 203 735 q 257 804 386 804 q 435 804 476 793 q 594 763 638 665 q 670 595 670 460 q 670 440 669 399 q 668 358 668 338 q 668 298 718 218 q 769 139 769 99 z m 613 422 q 613 488 578 546 q 537 614 476 614 q 414 614 373 546 q 338 488 338 421 q 338 363 372 344 q 399 329 469 329 q 538 329 566 341 q 613 362 613 422 z"},"f":{"x_min":0,"x_max":404,"ha":404,"o":"m 395 450 q 395 427 382 403 q 368 376 346 376 q 331 376 308 392 q 286 408 272 408 q 236 408 236 305 q 236 296 237 279 q 237 262 237 254 q 237 220 257 170 q 277 120 277 92 q 277 1 189 1 q 104 1 104 99 q 104 124 122 173 q 140 222 140 254 q 140 273 142 312 q 145 351 145 371 q 145 414 125 414 q 109 414 84 399 q 58 384 42 384 q 26 384 13 403 q 0 422 0 439 q 0 524 41 524 q 62 524 80 508 q 97 492 107 492 q 125 492 143 516 l 143 522 q 143 543 114 576 q 86 610 86 644 q 86 696 134 750 q 183 805 234 805 q 392 805 392 717 q 392 713 393 706 q 393 698 393 695 q 393 673 380 655 q 366 637 345 637 q 339 637 316 654 q 294 672 280 672 q 246 672 235 651 q 227 636 227 599 q 227 500 300 500 q 310 500 329 510 q 348 521 358 521 q 377 521 387 494 q 395 473 395 450 z"},"Q":{"x_min":0,"x_max":686,"ha":686,"o":"m 680 151 q 680 109 625 48 q 581 -1 515 -1 q 477 -1 422 14 q 377 28 332 42 q 184 88 99 177 q 2 279 2 423 q 2 575 95 686 q 193 804 342 804 q 477 804 578 708 q 678 612 678 478 q 678 417 618 361 q 600 345 504 279 q 444 237 444 210 q 444 191 464 178 q 483 166 503 166 q 528 166 576 186 q 623 207 642 207 q 680 207 680 151 z m 541 515 q 541 601 511 655 q 472 724 391 724 q 305 724 264 652 q 231 596 231 506 q 231 420 264 366 q 305 300 389 300 q 472 300 511 372 q 541 427 541 515 z"},"w":{"x_min":0,"x_max":727,"ha":727,"o":"m 720 500 q 720 454 696 364 q 672 273 672 228 q 672 210 682 176 q 692 141 692 122 q 692 58 637 27 q 592 2 523 2 q 383 2 383 117 q 383 146 396 201 q 409 256 409 285 q 409 341 384 341 q 336 341 336 276 q 336 250 345 198 q 354 146 354 120 q 354 59 311 29 q 274 2 211 2 q 145 2 100 25 q 43 55 43 115 q 43 136 55 175 q 67 214 67 234 q 67 281 34 368 q 0 455 0 502 q 0 543 26 567 q 53 591 95 591 q 140 591 168 559 q 197 527 197 481 q 197 438 179 354 q 161 270 161 227 q 161 99 209 99 q 258 99 258 221 q 258 251 254 310 q 249 368 249 398 q 249 484 406 484 q 445 484 463 461 q 474 445 487 400 q 497 366 497 309 q 497 288 495 246 q 493 204 493 183 q 493 144 498 128 q 508 100 539 100 q 573 100 582 162 q 585 182 585 247 q 585 285 562 359 q 539 433 539 471 q 539 526 570 558 q 600 589 654 589 q 720 589 720 500 z"},"-":{"x_min":0,"x_max":391,"ha":391,"o":"m 380 285 q 380 225 337 225 q 312 225 262 237 q 213 249 187 249 q 162 249 114 237 q 65 225 41 225 q 0 225 0 285 q 0 342 37 342 q 60 342 111 326 q 162 310 190 310 q 219 310 270 326 q 321 342 343 342 q 380 342 380 285 z"},"E":{"x_min":0,"x_max":567,"ha":567,"o":"m 558 133 q 558 100 545 63 q 530 18 492 6 q 472 0 411 0 q 250 0 163 21 q 4 60 4 170 q 4 213 26 295 q 47 377 47 420 q 47 462 25 542 q 3 623 3 665 q 3 762 121 791 q 176 804 317 804 q 329 804 353 805 q 377 806 389 806 q 470 806 498 767 q 511 749 522 697 q 532 649 532 621 q 532 561 489 561 q 457 561 389 590 q 321 620 285 620 q 249 620 227 583 q 210 551 210 512 q 210 477 226 448 q 246 413 279 413 q 309 413 364 437 q 418 461 448 461 q 477 461 494 431 q 508 406 508 374 q 508 341 494 316 q 477 285 448 285 q 418 285 364 309 q 310 333 280 333 q 246 333 225 297 q 207 266 207 230 q 207 188 226 154 q 249 112 287 112 q 324 112 390 142 q 456 171 493 171 q 533 171 543 167 q 558 160 558 133 z"},"s":{"x_min":0,"x_max":442,"ha":442,"o":"m 427 463 q 427 446 417 431 q 405 413 388 413 q 375 413 346 435 q 317 457 298 457 q 264 457 231 430 q 198 403 198 372 q 198 337 257 296 q 311 260 366 225 q 425 183 425 145 q 425 133 419 119 q 395 64 333 39 q 297 25 215 13 q 120 0 108 0 q 60 0 30 32 q 0 65 0 114 q 0 134 12 156 q 24 177 42 177 q 58 177 98 128 q 138 80 168 80 q 181 80 210 77 q 238 74 252 74 q 290 74 311 91 q 323 100 323 143 q 323 176 243 229 q 169 277 95 325 q 15 384 15 431 q 15 447 25 465 q 90 590 294 590 q 360 590 392 548 q 427 502 427 463 z"},">":{"x_min":0,"x_max":580,"ha":580,"o":"m 565 389 q 565 247 424 173 q 310 113 154 113 q 134 113 101 98 q 68 82 53 82 q 36 82 16 98 q -3 115 -3 131 q -3 136 3 161 q 21 233 124 260 q 214 277 304 293 q 396 318 396 389 q 396 461 305 486 q 215 502 126 519 q 24 545 6 617 q 0 643 0 647 q 0 660 15 674 q 30 688 44 688 q 57 688 88 670 q 120 651 142 651 q 305 651 417 600 q 565 531 565 389 z"},"l":{"x_min":0,"x_max":232,"ha":232,"o":"m 223 72 q 223 0 115 0 q 1 0 1 82 q 1 118 28 184 q 55 250 55 284 q 55 350 28 478 q 0 605 0 671 q 0 804 113 804 q 222 804 222 684 q 222 616 190 486 q 157 355 157 287 q 157 259 190 184 q 223 110 223 72 z"},"8":{"x_min":0,"x_max":578,"ha":578,"o":"m 578 207 q 581 110 487 52 q 404 0 290 0 q 174 0 90 50 q -6 107 2 202 q 5 244 53 273 q 96 295 139 317 q 185 346 184 388 q 183 428 141 456 q 102 478 62 499 q 19 527 15 567 q 7 660 97 718 q 178 769 288 769 q 391 769 472 723 q 563 671 563 589 q 563 578 561 567 q 554 525 484 488 q 413 452 408 409 q 403 366 446 334 q 488 308 530 282 q 577 250 578 207 z m 344 580 q 345 621 316 651 q 287 681 246 681 q 204 682 174 652 q 144 622 145 580 q 146 540 176 514 q 205 487 246 487 q 286 487 314 514 q 343 541 344 580 z m 422 187 q 423 230 392 261 q 362 292 319 293 q 275 294 244 262 q 212 231 213 187 q 214 145 245 116 q 276 88 319 89 q 361 90 391 118 q 421 146 422 187 z"},"\\":{"x_min":0,"x_max":484,"ha":484,"o":"m 467 17 q 470 0 419 0 q 323 0 279 26 q 235 53 213 119 q 201 154 173 291 q 158 388 121 583 q 109 636 56 702 q 2 769 -1 780 q -4 796 17 802 q 27 804 49 804 q 145 803 184 784 q 224 766 244 710 q 254 680 281 550 q 291 497 307 381 q 322 272 335 214 q 348 157 406 90 q 465 24 467 17 z"},"e":{"x_min":0,"x_max":550,"ha":550,"o":"m 543 337 q 543 291 518 254 q 490 213 446 213 q 399 213 314 248 q 228 282 185 282 q 158 282 150 262 q 145 250 145 218 q 145 159 190 137 q 196 134 286 111 q 312 105 330 105 q 350 105 398 144 q 447 184 472 184 q 494 184 507 156 q 518 133 518 109 q 518 58 488 29 q 458 0 408 0 q 377 0 301 11 q 173 30 94 98 q 3 175 3 297 q 3 411 78 498 q 154 584 266 584 q 360 584 450 508 q 543 429 543 337 z m 461 360 q 461 450 320 450 q 209 450 209 383 q 209 342 271 311 q 324 285 371 285 q 461 285 461 360 z"},"b":{"x_min":0,"x_max":575,"ha":575,"o":"m 564 291 q 564 205 529 134 q 490 54 419 21 q 379 2 344 2 q 313 2 286 39 q 258 76 246 76 q 205 76 205 16 q 205 -17 187 -17 q 164 -17 131 -7 q 104 1 77 10 q -1 31 -1 71 q -1 92 38 162 q 77 232 77 279 q 77 342 38 462 q -1 583 -1 647 q -1 748 76 770 q 135 787 169 787 q 201 787 236 767 q 277 744 277 714 q 277 683 240 612 q 202 541 202 514 q 202 482 272 482 q 294 482 310 506 q 325 530 340 553 q 361 578 393 578 q 490 578 533 477 q 564 404 564 291 z m 480 256 q 480 320 458 370 q 429 436 373 436 q 334 436 311 407 q 293 385 282 342 q 274 307 266 273 q 258 248 251 222 q 243 192 243 171 q 243 130 274 106 q 305 82 346 82 q 415 82 450 137 q 480 183 480 256 z"},"%":{"x_min":0,"x_max":902,"ha":902,"o":"m 891 187 q 891 109 834 53 q 778 -3 700 -3 q 620 -3 563 52 q 506 107 506 187 q 506 266 563 322 q 620 377 700 377 q 778 377 834 321 q 891 265 891 187 z m 859 680 q 859 658 830 637 q 700 541 650 497 q 555 415 495 330 q 454 273 425 205 q 401 145 376 85 q 335 4 291 4 q 285 4 274 5 q 263 6 257 6 q 146 6 146 60 q 146 117 267 254 q 380 374 493 494 q 615 628 615 677 q 615 714 554 714 q 528 714 479 702 q 430 691 404 691 q 392 691 370 697 q 347 703 336 703 q 323 703 311 694 q 299 686 299 674 q 299 661 322 644 q 358 618 366 610 q 389 585 389 552 q 389 481 325 430 q 266 383 193 383 q 113 383 56 439 q 0 495 0 575 q 0 656 71 713 q 138 766 221 766 q 244 766 292 764 q 339 763 362 763 q 412 763 508 778 q 605 794 654 794 q 708 794 777 763 q 859 727 859 680 z m 815 160 q 815 205 797 238 q 775 279 734 279 q 693 279 671 239 q 652 206 652 162 q 652 118 671 86 q 693 46 734 46 q 773 46 796 85 q 815 118 815 160 z m 228 588 q 228 633 210 666 q 187 706 146 706 q 106 706 84 666 q 65 633 65 590 q 65 546 83 513 q 105 473 146 473 q 186 473 209 512 q 228 545 228 588 z"},"m":{"x_min":0,"x_max":887,"ha":887,"o":"m 878 157 q 878 -2 763 -2 q 721 -2 688 16 q 649 38 649 77 q 649 112 698 152 q 748 191 748 228 q 748 287 729 338 q 702 406 653 406 q 616 406 596 366 q 594 363 570 293 q 559 260 559 223 q 559 196 575 151 q 591 106 591 80 q 591 41 552 19 q 519 0 476 0 q 433 0 399 19 q 359 41 359 81 q 359 114 383 152 q 407 189 407 225 q 407 252 395 282 q 384 323 373 363 q 355 415 321 415 q 282 415 256 381 q 240 360 220 311 q 193 244 193 219 q 193 185 216 147 q 238 109 238 77 q 238 39 202 18 q 173 0 132 0 q 94 0 55 12 q 2 29 2 57 q 2 75 37 137 q 72 199 72 240 q 72 286 37 373 q 2 460 2 505 q 2 552 47 567 q 126 594 150 594 q 169 594 184 582 q 200 569 200 550 q 200 543 196 528 q 192 514 192 507 q 192 475 213 475 q 226 475 273 528 q 320 580 353 580 q 388 580 430 532 q 473 484 507 484 q 545 484 589 532 q 633 580 670 580 q 713 580 732 544 q 744 521 752 463 q 760 405 769 385 q 803 331 837 276 q 878 208 878 157 z"},"#":{"x_min":0,"x_max":798,"ha":798,"o":"m 786 503 q 786 479 775 458 q 761 433 739 433 q 720 433 682 449 q 645 465 625 465 q 596 465 572 430 q 548 395 548 364 q 548 344 557 328 q 568 309 587 309 q 604 309 636 323 q 668 337 685 337 q 705 337 716 318 q 727 298 727 276 q 727 251 715 229 q 701 204 678 204 q 659 204 622 218 q 585 232 565 232 q 497 232 497 147 q 497 127 502 88 q 507 49 507 29 q 507 -56 406 -56 q 381 -56 359 -47 q 330 -35 330 -13 q 330 14 387 90 q 444 165 444 194 q 444 216 414 229 q 390 239 363 239 q 258 239 258 153 q 258 132 264 90 q 271 48 271 27 q 271 -56 172 -56 q 147 -56 125 -47 q 97 -35 97 -13 q 97 12 152 86 q 207 159 207 190 q 207 210 192 222 q 177 234 157 234 q 138 234 102 220 q 66 206 48 206 q 26 206 13 229 q 2 249 2 273 q 2 298 13 319 q 27 344 50 344 q 71 344 112 326 q 154 308 177 308 q 207 308 233 346 q 257 381 257 412 q 257 469 218 469 q 199 469 162 452 q 125 435 105 435 q 84 435 72 458 q 62 476 62 500 q 62 526 74 547 q 88 573 112 573 q 133 573 174 556 q 215 540 237 540 q 304 540 304 621 q 304 637 300 670 q 296 703 296 719 q 296 798 391 798 q 415 798 436 789 q 462 777 462 757 q 462 733 414 668 q 366 604 366 579 q 366 557 394 544 q 417 534 442 534 q 541 534 541 614 q 541 632 536 668 q 531 704 531 722 q 531 799 626 799 q 649 799 671 789 q 698 777 698 757 q 698 734 650 670 q 601 607 601 580 q 601 563 614 552 q 628 541 645 541 q 662 541 694 554 q 725 566 742 566 q 762 566 774 546 q 786 525 786 503 z m 496 408 q 496 438 475 457 q 454 476 425 476 q 383 476 346 443 q 310 410 310 368 q 310 338 331 318 q 352 299 381 299 q 423 299 460 333 q 496 367 496 408 z"},",":{"x_min":0,"x_max":210,"ha":210,"o":"m 197 27 q 197 -39 127 -90 q 62 -138 -6 -138 q -18 -138 -31 -133 q -47 -126 -47 -116 q -47 -105 2 -69 q 52 -33 52 -7 q 52 12 26 32 q 0 53 0 70 q 0 106 29 130 q 56 151 93 151 q 134 151 167 109 q 197 69 197 27 z"},"n":{"x_min":0,"x_max":542,"ha":542,"o":"m 536 75 q 536 0 456 0 q 421 0 392 28 q 362 57 362 92 q 362 120 386 154 q 409 187 409 224 q 409 235 414 256 q 420 277 420 288 q 420 295 418 300 q 410 342 403 384 q 390 440 358 440 q 279 440 234 336 q 207 274 207 239 q 207 211 223 158 q 239 106 239 78 q 239 1 101 1 q 65 1 42 24 q 20 46 20 82 q 20 111 46 152 q 71 193 71 206 q 71 255 37 352 q 3 449 3 498 q 3 554 48 569 q 129 596 152 596 q 171 596 186 584 q 202 572 202 552 q 202 545 198 530 q 194 516 194 509 q 194 477 215 477 q 229 477 275 530 q 321 582 354 582 q 421 582 459 539 q 478 517 515 437 q 524 418 524 393 q 524 361 510 300 q 495 238 495 207 q 495 182 516 141 q 536 100 536 75 z"},"h":{"x_min":0,"x_max":627,"ha":627,"o":"m 627 93 q 627 2 526 2 q 486 2 460 22 q 431 43 431 82 q 431 116 453 142 q 488 184 492 192 q 509 224 509 288 q 509 429 411 429 q 369 429 310 390 q 252 350 236 312 q 221 273 221 206 q 221 173 243 140 q 265 106 265 75 q 265 38 231 17 q 202 0 163 0 q 128 0 73 14 q -1 34 -1 101 q -1 151 32 245 q 64 339 64 389 q 64 444 32 547 q -1 650 -1 704 q -1 769 73 788 q 131 804 163 804 q 197 804 230 785 q 268 763 268 731 q 268 695 240 626 q 212 558 212 523 q 212 504 233 490 q 254 475 274 475 q 304 475 342 524 q 379 573 413 573 q 477 573 512 511 q 536 453 560 395 q 581 349 584 278 q 588 191 595 162 q 597 153 612 128 q 627 103 627 93 z"},"z":{"x_min":0,"x_max":542,"ha":542,"o":"m 530 519 q 530 465 438 370 q 354 290 269 210 q 177 122 177 83 q 177 58 221 58 q 232 58 254 60 q 275 63 285 63 q 318 63 378 107 q 437 151 467 151 q 522 151 522 73 q 522 2 426 2 q 392 2 323 11 q 254 20 219 20 q 196 20 152 10 q 108 0 87 0 q 64 0 17 17 q 2 22 2 56 q 2 121 78 185 q 149 234 219 283 q 295 336 295 377 q 295 402 278 420 q 262 438 237 438 q 205 438 136 412 q 66 387 37 387 q 0 387 0 488 q 0 519 24 566 q 47 610 99 610 q 163 610 278 582 q 306 576 308 576 q 332 576 380 582 q 428 588 452 588 q 530 588 530 519 z"},"B":{"x_min":0,"x_max":609,"ha":609,"o":"m 600 219 q 600 135 478 82 q 431 62 283 25 q 190 2 139 2 q 70 2 37 26 q 0 54 0 120 q 0 166 15 258 q 30 350 30 397 q 30 444 14 536 q -1 627 -1 673 q -1 739 37 766 q 69 790 138 790 q 186 790 281 768 q 340 755 398 742 q 476 721 518 692 q 572 653 572 594 q 572 552 536 523 q 503 500 470 477 q 434 449 434 411 q 434 371 477 346 q 517 324 557 303 q 600 272 600 219 z m 338 613 q 338 657 278 686 q 228 711 178 711 q 138 711 115 680 q 93 653 93 612 q 93 571 115 543 q 138 512 178 512 q 194 512 228 521 q 338 550 338 613 z m 465 204 q 465 249 415 274 q 389 287 326 300 q 290 307 278 307 q 236 307 212 274 q 190 245 190 202 q 190 159 213 128 q 236 97 278 97 q 291 97 326 104 q 389 117 416 132 q 465 157 465 204 z"},"K":{"x_min":0,"x_max":712,"ha":712,"o":"m 702 61 q 702 30 648 10 q 604 -7 566 -7 q 521 -7 481 5 q 417 24 378 105 q 354 174 328 243 q 303 312 268 312 q 241 312 226 280 q 215 255 215 224 q 215 185 245 150 q 275 115 275 76 q 275 38 238 17 q 207 0 166 0 q 120 0 68 15 q 0 36 0 71 q 0 93 46 173 q 92 253 92 308 q 92 374 46 500 q 0 625 0 692 q 0 763 64 784 q 122 804 169 804 q 207 804 236 787 q 270 767 270 732 q 270 685 241 593 q 212 501 212 454 q 212 429 230 406 q 247 383 272 383 q 303 383 329 481 q 379 670 379 671 q 418 779 476 797 q 517 810 565 810 q 600 810 643 794 q 695 774 695 745 q 695 715 622 639 q 506 519 488 496 q 415 407 415 342 q 415 276 489 219 q 507 205 628 136 q 702 93 702 61 z"},"R":{"x_min":0,"x_max":634,"ha":634,"o":"m 627 60 q 627 34 590 15 q 558 0 529 0 q 430 0 322 74 q 204 155 204 251 q 204 280 244 298 q 276 312 309 312 q 315 312 326 311 q 338 310 344 310 q 388 310 404 363 q 410 386 414 452 q 366 585 277 585 q 158 585 158 500 q 158 469 169 415 q 182 354 184 330 q 186 307 186 278 q 186 251 182 196 q 178 141 178 113 q 178 0 113 0 q -4 0 -4 96 q -4 135 21 204 q 46 273 46 284 q 46 345 26 465 q 7 585 7 646 q 7 804 143 804 q 173 804 214 792 q 249 780 283 769 q 420 729 480 691 q 584 626 584 522 q 584 476 547 436 q 512 404 477 372 q 439 333 439 288 q 439 245 488 198 q 489 197 579 125 q 627 85 627 60 z"},"T":{"x_min":0,"x_max":596,"ha":596,"o":"m 596 607 q 596 579 581 558 q 565 534 538 534 q 517 534 479 547 q 441 560 420 560 q 379 560 354 534 q 329 507 329 466 q 329 389 386 285 q 444 181 444 104 q 444 0 290 0 q 135 0 135 104 q 135 168 175 222 q 212 266 248 310 q 288 364 288 428 q 288 469 263 496 q 238 522 197 522 q 177 522 138 509 q 100 496 80 496 q 54 496 35 539 q 17 576 17 607 q 17 614 16 652 q 14 691 14 713 q 14 746 17 757 q 33 806 73 806 q 105 806 202 778 q 298 751 338 751 q 378 751 444 776 q 510 801 541 801 q 580 801 596 753 q 600 742 600 710 q 600 689 598 652 q 596 614 596 607 z"},"P":{"x_min":0,"x_max":642,"ha":642,"o":"m 635 525 q 635 417 530 340 q 434 271 322 271 q 313 271 296 274 q 279 276 270 276 q 218 276 218 235 q 218 205 238 150 q 259 94 259 64 q 259 34 230 16 q 205 0 173 0 q 139 0 63 22 q 0 41 0 90 q 0 128 43 202 q 86 277 86 292 q 86 351 68 467 q 50 583 50 642 q 50 804 188 804 q 241 804 322 782 q 461 745 528 703 q 635 635 635 525 z m 543 468 q 543 529 492 570 q 440 611 377 611 q 320 611 288 568 q 260 529 260 470 q 260 410 288 372 q 320 329 377 329 q 438 329 490 368 q 543 408 543 468 z"},"|":{"x_min":0,"x_max":255,"ha":255,"o":"m 152 -65 l 82 -65 l 82 785 l 152 785 z"},"t":{"x_min":0,"x_max":431,"ha":431,"o":"m 418 85 q 418 52 397 26 q 376 0 344 0 q 326 0 288 9 q 210 28 171 51 q 116 83 89 143 q 66 194 66 221 q 66 251 96 308 q 126 366 126 408 q 126 453 98 453 q 86 453 64 447 q 42 441 30 441 q 15 441 6 468 q 0 488 0 507 q 0 527 23 550 q 46 573 66 573 q 72 573 85 570 q 98 566 105 566 q 116 566 122 578 q 129 589 129 601 q 129 612 112 634 q 94 657 94 668 q 94 693 130 720 q 167 746 193 746 q 221 746 257 725 q 297 702 297 676 q 297 662 278 636 q 258 609 258 595 q 258 580 268 570 q 278 559 293 559 q 308 559 335 570 q 362 582 377 582 q 396 582 407 562 q 418 543 418 523 q 418 498 408 473 q 397 441 377 441 q 363 441 334 444 q 306 447 292 447 q 264 447 250 430 q 241 420 228 389 q 212 350 212 327 q 212 312 214 282 q 216 251 216 235 q 216 219 224 205 q 233 191 242 178 q 254 158 268 138 q 283 117 306 117 q 316 117 341 138 q 366 160 376 160 q 393 160 406 130 q 418 104 418 85 z"},"M":{"x_min":0,"x_max":858,"ha":858,"o":"m 850 120 q 850 35 780 13 q 729 -2 682 -2 q 632 -2 632 84 q 632 153 674 242 q 716 330 716 381 q 716 413 695 432 q 674 452 643 452 q 594 452 594 356 q 594 335 610 296 q 625 258 625 235 q 625 156 612 129 q 590 86 520 86 q 446 86 422 110 q 398 135 398 208 q 398 232 388 280 q 377 327 377 351 q 377 447 329 447 q 298 447 278 428 q 257 408 257 377 q 257 324 297 244 q 337 163 337 117 q 337 63 276 28 q 223 -1 165 -1 q 120 -1 70 13 q 0 34 0 120 q 0 181 34 298 q 68 415 68 476 q 68 532 54 612 q 41 691 41 714 q 41 771 89 791 q 119 804 186 804 q 278 804 318 762 q 359 721 359 630 q 359 598 398 519 q 436 440 436 408 q 436 358 454 335 q 474 309 523 309 q 569 309 569 363 q 569 373 566 387 q 562 405 561 411 q 557 446 529 524 q 503 597 503 632 q 503 722 542 762 q 582 803 673 803 q 736 803 764 792 q 812 774 812 723 q 812 700 797 626 q 780 540 780 480 q 780 418 815 300 q 850 182 850 120 z"},"g":{"x_min":0,"x_max":604,"ha":604,"o":"m 604 515 q 604 491 588 466 q 571 437 548 437 q 543 437 534 440 q 524 442 519 442 q 501 442 501 423 q 501 417 508 402 q 515 387 515 378 q 515 296 446 242 q 382 193 297 193 q 272 193 245 205 q 218 217 207 217 q 178 217 156 192 q 133 167 133 138 q 133 93 167 93 q 182 93 214 106 q 246 118 264 117 l 273 116 q 527 100 527 -36 q 527 -126 425 -166 q 353 -193 245 -193 q 158 -193 95 -174 q -2 -145 -2 -79 q -2 -41 35 -12 q 72 16 72 42 q 72 64 36 88 q 0 111 0 134 q 0 159 27 172 q 54 185 80 197 q 108 214 108 243 q 108 269 68 308 q 28 346 28 382 q 28 466 114 519 q 188 564 278 564 q 312 564 365 524 q 418 484 438 484 q 461 484 470 507 q 480 530 490 552 q 506 576 542 576 q 569 576 586 559 q 604 542 604 515 z m 330 403 q 330 447 294 478 q 259 508 215 508 q 170 508 136 478 q 103 448 103 404 q 103 359 137 330 q 171 301 217 301 q 262 301 296 330 q 330 359 330 403 z m 452 -54 q 452 -24 410 -9 q 376 1 342 11 q 342 11 308 32 q 287 45 271 45 q 240 45 221 20 q 202 -6 202 -38 q 202 -120 300 -120 q 452 -120 452 -54 z"},"j":{"x_min":0,"x_max":251,"ha":251,"o":"m 189 685 q 189 619 124 619 q 93 619 74 638 q 56 657 56 688 q 56 750 124 750 q 189 750 189 685 z m 236 437 q 236 379 197 215 q 190 188 182 161 q 174 130 174 107 q 174 99 176 82 q 178 64 178 55 q 178 -23 120 -106 q 58 -197 -17 -197 q -39 -197 -45 -191 q -51 -185 -51 -164 q -51 -99 -11 -15 q 26 56 63 127 q 102 211 102 278 q 102 329 80 370 q 77 375 38 427 q 15 457 15 484 q 15 518 49 540 q 80 560 116 560 q 236 560 236 437 z"},"i":{"x_min":0,"x_max":184,"ha":184,"o":"m 154 703 q 154 637 89 637 q 21 637 21 706 q 21 768 89 768 q 154 768 154 703 z m 175 492 q 175 447 154 360 q 133 272 133 227 q 133 170 151 121 q 165 82 165 77 q 165 51 139 26 q 113 0 88 0 q 61 0 34 25 q 7 50 7 77 q 7 98 24 148 q 42 199 42 233 q 42 277 21 363 q 0 449 0 494 q 0 575 88 575 q 175 575 175 492 z"},"y":{"x_min":0,"x_max":569,"ha":569,"o":"m 556 441 q 556 389 478 235 q 399 81 399 26 q 399 4 409 -36 q 419 -77 419 -97 q 419 -142 356 -168 q 245 -214 225 -214 q 202 -214 179 -201 q 156 -188 156 -167 q 156 -139 203 -83 q 250 -27 250 -13 q 250 -3 234 -1 q 222 -1 210 0 q 114 21 114 103 q 114 124 121 165 q 128 206 128 227 q 128 279 94 313 q 1 409 1 478 q 1 518 29 539 q 54 558 95 558 q 167 558 198 527 q 230 496 230 424 q 230 395 224 337 q 218 279 218 250 q 218 198 237 137 q 262 58 301 58 q 340 58 367 131 q 389 189 389 237 q 389 266 382 324 q 374 383 374 412 q 374 425 371 450 q 368 475 368 488 q 368 561 482 561 q 517 561 538 516 q 556 480 556 441 z"},"@":{"x_min":0,"x_max":942,"ha":942,"o":"m 926 440 q 926 323 866 212 q 794 81 687 81 q 625 81 566 113 q 497 150 497 207 q 497 217 502 235 q 507 253 507 263 q 507 289 497 289 q 488 289 459 247 q 418 188 400 168 q 361 125 329 125 q 262 125 219 213 q 184 285 184 360 q 184 496 317 589 q 437 673 580 673 q 634 673 684 644 q 743 611 743 560 q 743 522 682 437 q 621 352 621 304 q 621 261 654 213 q 690 160 731 160 q 789 160 828 275 q 859 366 859 440 q 859 575 736 666 q 623 749 482 749 q 327 749 215 640 q 103 532 103 378 q 103 217 324 98 q 375 78 426 59 q 521 22 521 15 q 521 9 499 9 q 490 9 478 10 q 476 10 473 12 q 473 19 510 19 q 547 19 547 -13 q 547 -46 521 -46 q 513 -46 500 -43 q 484 -39 478 -38 q 433 -34 343 -18 q 193 22 101 122 q 2 230 2 379 q 2 559 148 684 q 287 804 470 804 q 639 804 775 708 q 926 602 926 440 z m 526 517 q 526 549 493 549 q 496 549 433 537 q 360 524 317 466 q 274 407 274 331 q 274 291 287 252 q 305 199 337 199 q 380 199 437 310 q 460 356 502 462 q 503 465 517 489 q 526 506 526 517 z"},".":{"x_min":0,"x_max":203,"ha":203,"o":"m 187 70 q 186 36 158 15 q 131 -6 94 -6 q 57 -6 29 15 q 1 36 0 70 q -1 104 25 126 q 51 149 88 151 q 127 153 158 130 q 188 106 187 70 z"},"p":{"x_min":0,"x_max":594,"ha":594,"o":"m 579 281 q 579 175 524 93 q 461 0 359 0 q 329 0 288 24 q 248 49 229 49 q 178 49 178 7 q 178 -19 201 -68 q 224 -118 224 -145 q 224 -196 152 -196 q 67 -196 102 -197 q 72 -196 56 -185 q 11 -154 11 -110 q 11 -79 42 -14 q 74 51 74 85 q 74 133 37 250 q 0 366 0 432 q 0 482 8 506 q 21 542 56 552 q 83 561 110 569 q 143 579 165 579 q 184 579 198 568 q 211 556 211 538 q 211 531 208 519 q 205 507 205 501 q 205 471 225 471 q 237 471 284 520 q 330 568 372 568 q 469 568 529 469 q 579 385 579 281 z m 491 239 q 491 300 469 350 q 440 414 387 414 q 342 414 315 372 q 304 355 280 292 q 250 212 250 178 q 250 133 284 104 q 317 74 363 74 q 427 74 462 126 q 491 171 491 239 z"},"X":{"x_min":0,"x_max":742,"ha":742,"o":"m 742 744 q 742 690 671 606 q 605 532 539 459 q 468 373 468 316 q 468 237 527 210 q 586 194 644 179 q 714 160 730 107 q 706 0 614 0 q 560 0 516 22 q 468 47 468 111 q 468 121 470 141 q 471 161 471 170 q 471 200 443 220 q 419 237 388 237 q 335 237 310 176 q 264 64 262 61 q 221 0 128 0 q 92 0 50 15 q -2 34 -2 63 q -2 180 94 187 q 180 193 243 220 q 333 258 333 327 q 333 391 247 469 q 224 490 86 591 q 0 656 0 685 q 0 739 36 772 q 73 806 128 806 q 179 806 225 783 q 268 762 292 664 q 310 581 329 498 q 353 414 399 414 q 428 414 447 441 q 466 468 466 498 q 466 527 472 586 q 477 644 477 673 q 477 761 518 783 q 560 805 615 805 q 650 805 691 790 q 742 772 742 744 z"},"*":{"x_min":0,"x_max":310,"ha":310,"o":"m 295 655 q 295 636 255 636 q 245 636 230 638 q 215 639 212 639 q 172 639 172 616 q 172 596 205 592 q 197 593 254 593 q 293 593 293 573 q 293 558 280 539 q 267 520 252 520 q 237 520 212 558 q 186 596 171 596 q 150 596 150 575 q 150 561 170 530 q 190 499 190 487 q 190 463 149 463 q 108 463 108 488 q 108 501 125 531 q 142 561 142 574 q 142 596 121 596 q 105 596 81 558 q 57 519 41 519 q 26 519 13 537 q 0 555 0 571 q 0 586 26 590 q 29 590 66 591 q 119 591 119 616 q 119 640 69 640 l 47 640 q 3 641 3 660 q 3 675 15 693 q 27 711 42 711 q 56 711 80 672 q 105 632 121 632 q 142 632 142 654 q 142 667 125 698 q 108 728 108 741 q 108 766 149 766 q 190 766 190 742 q 190 729 170 698 q 150 667 150 653 q 150 632 171 632 q 186 632 212 670 q 237 709 252 709 q 268 709 282 690 q 295 671 295 655 z"},"Y":{"x_min":0,"x_max":687,"ha":687,"o":"m 687 701 q 687 669 620 570 q 516 419 495 382 q 428 266 428 191 q 428 151 449 132 q 470 112 470 75 q 470 28 440 12 q 419 0 368 0 q 264 0 264 81 q 264 107 276 154 q 287 202 287 229 q 287 302 213 396 q 144 474 75 551 q 1 636 1 686 q 1 788 95 788 q 143 788 189 766 q 235 745 267 642 q 293 553 318 464 q 351 373 401 373 q 452 373 452 472 q 452 500 448 558 q 444 615 444 644 q 444 745 489 766 q 534 787 584 787 q 622 787 653 764 q 687 738 687 701 z"},"c":{"x_min":0,"x_max":486,"ha":486,"o":"m 478 114 q 478 65 448 32 q 418 0 371 0 q 356 0 278 10 q 161 25 83 99 q 0 178 0 293 q 0 411 80 497 q 160 583 278 583 q 285 583 300 583 q 315 584 322 584 q 391 584 423 544 q 455 504 455 470 q 455 455 445 440 q 435 424 421 424 q 408 424 364 426 q 320 429 296 429 q 230 429 184 372 q 142 318 142 251 q 142 184 187 131 q 234 74 300 74 q 328 74 361 122 q 394 171 407 174 q 416 176 423 176 q 450 176 466 153 q 478 135 478 114 z"},"!":{"x_min":0,"x_max":198,"ha":198,"o":"m 177 286 q 177 225 91 225 q 0 225 0 296 q 0 330 14 372 q 29 413 29 448 q 29 483 15 576 q 1 670 1 702 q 1 770 91 770 q 176 770 176 709 q 176 678 158 581 q 140 484 140 445 q 140 406 158 362 q 177 318 177 286 z m 185 77 q 185 42 156 22 q 126 1 90 1 q 55 1 26 22 q -3 43 -3 77 q -3 113 27 136 q 54 158 91 158 q 128 158 156 136 q 185 113 185 77 z"},"/":{"x_min":0,"x_max":484,"ha":484,"o":"m 468 780 q 465 769 411 704 q 357 638 345 584 q 330 487 294 293 q 266 156 254 121 q 231 54 189 29 q 144 2 48 2 q -4 2 0 19 q 1 25 60 92 q 119 158 132 216 q 144 274 159 383 q 175 498 186 551 q 212 681 223 711 q 243 766 282 784 q 322 803 418 804 q 473 804 468 780 z"},"[":{"x_min":0,"x_max":385,"ha":385,"o":"m 369 -17 q 369 -56 345 -83 q 321 -110 282 -110 q 244 -110 191 -95 q 146 -82 101 -68 q 0 -38 0 61 q 0 113 26 214 q 53 316 53 368 q 53 417 26 508 q 0 600 0 648 q 0 732 101 762 q 146 775 191 789 q 245 804 283 804 q 321 804 344 778 q 367 753 367 714 q 367 697 356 684 q 344 670 326 670 q 313 670 289 676 q 265 683 253 683 q 106 683 106 447 q 106 428 107 390 q 108 352 108 333 q 108 315 107 279 q 106 243 106 225 q 106 17 253 17 q 265 17 289 24 q 313 30 326 30 q 344 30 356 16 q 369 2 369 -17 z"},"6":{"x_min":0,"x_max":583,"ha":583,"o":"m 583 239 q 583 129 489 59 q 403 -3 289 -3 q 151 -3 70 121 q 0 229 0 375 q 0 526 88 634 q 175 743 322 764 q 411 776 435 776 q 507 776 537 725 q 560 685 560 648 q 560 624 547 600 q 531 573 508 573 q 489 573 443 606 q 397 638 369 638 q 320 638 241 580 q 158 520 158 473 q 158 455 176 444 q 191 435 210 435 q 231 435 270 457 q 310 479 335 479 q 433 479 508 408 q 583 336 583 239 z m 480 217 q 480 266 451 303 q 419 343 372 343 q 323 343 292 305 q 260 267 260 217 q 260 167 292 130 q 323 92 372 92 q 420 92 451 132 q 480 168 480 217 z"},"r":{"x_min":0,"x_max":448,"ha":448,"o":"m 436 472 q 436 450 425 432 q 411 413 390 413 q 376 413 352 430 q 329 447 315 447 q 252 447 205 381 q 161 321 161 256 q 161 223 186 165 q 211 107 211 76 q 211 0 113 0 q 80 0 52 26 q 25 52 25 85 q 25 113 55 154 q 85 196 85 222 q 85 271 44 368 q 2 464 2 511 q 2 555 42 569 q 123 596 146 596 q 166 596 181 584 q 196 572 196 553 q 196 545 192 530 q 187 515 187 507 q 187 479 206 479 q 217 479 249 528 q 281 576 308 580 q 316 581 331 581 q 377 581 406 550 q 436 518 436 472 z"},"2":{"x_min":0,"x_max":551,"ha":551,"o":"m 547 213 q 547 131 509 100 q 385 0 236 0 q 112 0 70 14 q 0 36 0 111 q 0 192 43 234 q 66 256 141 290 q 212 321 245 359 q 282 396 319 433 q 364 483 364 523 q 364 580 312 625 q 261 670 204 670 q 175 670 126 636 q 76 602 59 602 q 41 602 30 624 q 20 642 20 661 q 20 703 66 757 q 107 805 181 805 q 323 805 422 746 q 542 675 542 543 q 542 489 509 438 q 483 400 432 355 q 388 320 345 285 q 327 269 252 237 q 193 212 174 175 q 166 161 166 153 q 166 139 185 139 q 207 139 274 162 q 295 169 379 226 q 453 276 486 276 q 520 276 534 262 q 547 247 547 213 z"},"{":{"x_min":0,"x_max":314,"ha":314,"o":"m 300 -76 q 300 -93 290 -109 q 279 -125 262 -125 q 253 -125 237 -120 q 221 -116 213 -115 q 185 -115 157 -114 q 126 -111 107 -92 q 91 -76 87 -49 q 84 -25 80 0 q 74 31 74 60 q 74 82 78 101 q 82 120 82 141 q 82 200 75 216 q 68 232 46 238 q 18 246 12 250 q -5 262 -5 293 q -5 325 13 337 q 19 341 50 348 q 72 354 77 369 q 80 377 80 431 q 80 453 76 522 q 73 590 73 612 q 73 646 80 681 q 95 756 98 761 q 115 794 172 794 q 206 794 213 794 q 220 795 236 800 q 252 804 261 804 q 277 804 287 790 q 297 775 297 758 q 297 728 273 728 q 269 728 262 730 q 255 731 252 731 q 227 731 220 724 q 212 717 206 670 q 200 630 200 611 q 200 585 206 510 q 211 434 211 408 q 211 387 208 362 q 205 333 203 327 q 196 313 172 313 q 162 313 142 316 q 123 320 113 320 q 87 320 87 294 q 87 268 113 268 q 123 268 142 271 q 162 274 171 274 q 196 274 203 258 q 212 238 212 171 q 212 145 208 118 q 203 91 203 66 q 203 -21 216 -36 q 225 -47 252 -47 q 256 -47 264 -46 q 271 -44 274 -44 q 300 -44 300 -76 z"},"9":{"x_min":0,"x_max":583,"ha":583,"o":"m 583 401 q 583 250 497 143 q 408 32 261 12 q 171 0 147 0 q 76 0 46 51 q 22 91 22 128 q 22 153 36 176 q 52 203 75 203 q 94 203 140 170 q 186 138 214 138 q 263 138 342 196 q 425 256 425 303 q 425 321 408 331 q 392 341 373 341 q 352 341 312 319 q 273 297 248 297 q 149 297 74 368 q 0 439 0 537 q 0 647 94 717 q 180 779 294 779 q 432 779 513 655 q 583 547 583 401 z m 438 520 q 438 570 407 608 q 376 646 326 646 q 278 646 248 608 q 218 569 218 520 q 218 471 247 435 q 279 395 326 395 q 375 395 406 432 q 438 470 438 520 z"}," ":{"x_min":0,"x_max":310,"ha":310,"o":""},"I":{"x_min":0,"x_max":256,"ha":256,"o":"m 248 757 q 248 745 229 673 q 210 601 210 538 q 210 475 229 352 q 248 228 248 165 q 248 83 222 45 q 190 0 112 0 q 1 0 1 56 q 1 72 24 154 q 48 236 48 301 q 48 363 24 484 q 1 606 1 668 q 1 746 34 775 q 67 804 145 804 q 248 804 248 757 z"},"H":{"x_min":0,"x_max":726,"ha":726,"o":"m 715 80 q 715 38 656 19 q 597 0 553 0 q 513 0 483 18 q 447 39 447 76 q 447 114 504 153 q 562 192 562 230 q 562 276 510 305 q 467 330 417 330 q 363 330 307 305 q 237 276 237 230 q 237 201 258 153 q 280 105 280 76 q 280 39 245 18 q 215 0 175 0 q 133 0 70 20 q 7 39 7 90 q 7 132 51 234 q 95 337 95 393 q 95 450 50 556 q 6 662 6 708 q 6 763 70 784 q 135 804 176 804 q 213 804 241 787 q 274 766 274 732 q 274 692 256 616 q 237 539 237 500 q 237 456 307 417 q 369 382 417 382 q 464 382 507 407 q 557 436 557 480 q 557 514 504 606 q 451 697 451 732 q 451 766 484 787 q 512 804 549 804 q 590 804 656 783 q 713 765 713 721 q 713 671 670 542 q 626 412 626 349 q 626 291 670 204 q 715 117 715 80 z"},"4":{"x_min":0,"x_max":645,"ha":645,"o":"m 645 245 q 645 221 632 200 q 617 175 594 175 q 586 175 572 179 q 557 183 549 183 q 514 183 514 151 q 514 133 526 112 q 539 90 539 71 q 539 41 503 20 q 471 3 438 3 q 403 3 371 22 q 335 44 335 77 q 335 94 350 112 q 365 129 365 146 q 365 173 348 191 q 330 209 304 209 q 269 209 200 196 q 131 184 96 184 q 0 184 0 389 q 0 535 91 641 q 178 743 323 782 q 385 799 432 799 q 469 799 507 788 q 561 773 561 747 q 561 708 446 630 q 339 562 232 493 q 116 416 116 378 q 116 353 186 316 q 252 281 281 281 q 315 281 342 299 q 373 319 373 351 q 373 379 352 432 q 331 486 331 514 q 331 547 370 568 q 403 587 438 587 q 474 587 506 569 q 543 548 543 516 q 543 487 526 430 q 510 373 510 344 q 510 308 549 308 q 556 308 571 312 q 586 316 593 316 q 617 316 632 291 q 645 270 645 245 z"},"~":{"x_min":0,"x_max":475,"ha":475,"o":"m 460 311 q 460 267 427 228 q 394 189 350 189 q 299 189 238 240 q 176 291 142 291 q 119 291 83 264 q 47 236 32 236 q 18 236 8 254 q 0 269 0 285 q 0 329 40 368 q 81 408 124 408 q 159 408 174 407 q 213 404 259 332 q 305 259 339 259 q 366 259 384 299 q 403 339 423 339 q 435 339 448 331 q 460 323 460 311 z"},"D":{"x_min":0,"x_max":592,"ha":592,"o":"m 581 385 q 581 236 516 150 q 451 64 308 23 q 226 0 170 0 q 91 0 46 40 q 0 79 0 149 q 0 194 32 285 q 64 376 64 413 q 64 420 51 479 q 48 494 22 567 q 0 627 0 656 q 0 725 46 764 q 93 804 171 804 q 206 804 321 772 q 581 699 581 385 z m 508 331 q 508 470 501 501 q 481 589 401 589 q 312 589 244 507 q 181 430 181 346 q 181 328 178 286 q 176 245 176 224 q 176 88 271 88 q 363 88 437 168 q 508 245 508 331 z"},"^":{"x_min":0,"x_max":537,"ha":537,"o":"m 526 516 q 526 455 435 455 q 359 455 337 517 q 327 574 317 631 q 305 692 252 692 q 199 692 186 631 q 177 574 168 517 q 146 455 70 455 q 0 455 0 517 q 0 587 70 662 q 139 738 209 750 q 232 754 252 754 q 272 754 296 750 q 366 738 444 663 q 526 584 526 516 z"},"0":{"x_min":0,"x_max":608,"ha":608,"o":"m 604 384 q 604 236 528 125 q 442 0 301 0 q 161 0 76 126 q 1 238 1 384 q 1 529 77 640 q 163 765 301 765 q 441 765 527 641 q 604 530 604 384 z m 478 326 q 473 464 449 522 q 425 581 372 581 q 295 581 267 484 q 251 429 251 325 q 251 71 372 71 q 421 71 453 167 q 480 247 478 326 z"},"F":{"x_min":0,"x_max":560,"ha":560,"o":"m 551 605 q 551 571 538 547 q 521 518 490 518 q 455 518 390 547 q 326 576 291 576 q 254 576 231 535 q 213 501 213 461 q 213 424 230 393 q 251 357 286 357 q 316 357 360 382 q 405 406 435 406 q 465 406 483 374 q 497 349 497 316 q 497 283 482 256 q 464 224 433 224 q 404 224 360 246 q 317 268 288 268 q 257 268 236 248 q 215 229 215 198 q 215 168 238 134 q 261 99 261 69 q 261 35 226 15 q 197 -1 159 -1 q 86 -1 54 18 q 1 50 1 79 q 1 91 33 143 q 65 195 65 245 q 65 304 32 416 q 0 529 0 588 q 0 668 57 706 q 205 803 315 803 q 410 803 476 755 q 551 701 551 605 z"},"`":{"x_min":0,"x_max":225,"ha":225,"o":"m 213 625 q 213 609 193 598 q 173 588 157 588 q 143 588 129 612 q 115 637 103 642 q 71 655 39 669 q -2 689 -2 715 q -2 729 16 756 q 33 783 45 783 q 68 783 86 757 q 91 749 108 712 q 126 674 161 659 q 177 653 192 647 q 213 636 213 625 z"},"k":{"x_min":0,"x_max":553,"ha":553,"o":"m 553 507 q 553 498 552 493 q 548 472 485 438 q 405 395 375 367 q 316 314 316 243 q 316 190 374 165 q 429 149 483 133 q 541 113 541 73 q 541 50 516 25 q 490 0 467 0 q 357 0 317 71 q 298 104 286 203 q 277 274 243 274 q 219 274 194 247 q 170 220 170 196 q 170 163 189 143 q 208 123 208 90 q 208 57 182 30 q 155 4 122 4 q 83 4 44 27 q 0 54 0 90 q 0 122 37 192 q 74 262 74 306 q 74 374 38 504 q 2 634 2 701 q 2 804 111 804 q 218 804 218 722 q 218 661 170 520 q 122 379 122 327 q 122 312 138 298 q 154 283 169 283 q 217 283 243 347 q 263 412 282 476 q 306 552 348 571 q 402 595 450 595 q 489 595 521 570 q 553 545 553 507 z"},"u":{"x_min":0,"x_max":551,"ha":551,"o":"m 546 66 q 546 37 531 8 q 518 -17 453 -17 q 385 -17 385 25 q 385 32 388 46 q 392 60 392 67 q 392 100 370 100 q 356 100 308 50 q 259 0 224 0 q 153 0 105 75 q 87 103 43 212 q -1 321 -1 445 q -1 578 119 578 q 164 578 198 559 q 239 537 239 496 q 239 457 219 381 q 199 305 199 266 q 199 253 214 206 q 236 137 312 110 q 351 117 373 138 q 385 150 414 195 q 435 228 435 262 q 435 306 386 382 q 337 457 337 497 q 337 537 375 558 q 406 574 449 574 q 527 574 527 493 q 527 449 508 362 q 489 275 489 230 q 489 179 518 136 q 546 94 546 66 z"},"]":{"x_min":0,"x_max":385,"ha":385,"o":"m 368 62 q 368 -36 266 -66 q 221 -80 177 -94 q 123 -108 85 -108 q 46 -108 22 -81 q -2 -54 -2 -15 q -2 4 10 18 q 23 31 42 31 q 54 31 78 25 q 102 19 114 19 q 261 19 261 227 q 261 245 260 280 q 259 316 259 334 q 259 353 260 391 q 261 429 261 448 q 261 684 114 684 q 102 684 78 678 q 54 672 41 672 q 24 672 12 685 q 0 698 0 716 q 0 755 23 780 q 46 806 84 806 q 122 806 176 791 q 221 777 266 763 q 368 734 368 650 q 368 602 342 510 q 315 418 315 370 q 315 317 342 216 q 368 115 368 62 z"},"U":{"x_min":0,"x_max":764,"ha":764,"o":"m 760 632 q 760 407 680 230 q 577 0 380 0 q 195 0 88 235 q 4 421 4 632 q 4 725 16 755 q 39 807 117 807 q 184 807 232 791 q 301 767 301 713 q 301 671 292 587 q 284 503 284 461 q 284 383 309 313 q 377 122 448 122 q 490 122 522 170 q 525 176 564 255 q 587 300 587 345 q 587 407 542 521 q 497 635 497 695 q 497 749 545 777 q 584 801 642 801 q 721 801 745 753 q 760 722 760 632 z"},"o":{"x_min":0,"x_max":556,"ha":556,"o":"m 544 285 q 544 169 466 85 q 389 1 276 0 q 162 -1 83 82 q 4 166 3 283 q 2 401 82 488 q 161 574 276 573 q 390 572 467 487 q 544 402 544 285 z m 426 248 q 428 321 404 371 q 375 431 318 432 q 260 433 230 372 q 204 320 206 248 q 208 178 233 132 q 263 75 318 76 q 372 77 401 133 q 424 178 426 248 z"},"N":{"x_min":0,"x_max":749,"ha":749,"o":"m 744 679 q 744 615 713 490 q 682 365 682 300 q 682 269 699 204 q 716 139 716 105 q 716 7 599 7 q 476 7 425 104 q 406 140 375 284 q 354 381 306 381 q 271 381 248 352 q 224 323 224 288 q 224 239 256 186 q 289 133 289 85 q 289 41 248 18 q 215 0 167 0 q 116 0 68 16 q 29 29 13 55 q -1 78 -1 121 q -1 184 34 304 q 70 424 70 487 q 70 523 48 590 q 25 658 25 694 q 25 792 146 792 q 193 792 222 783 q 299 757 359 603 q 402 467 444 332 q 489 192 534 192 q 568 192 592 220 q 615 249 615 283 q 615 339 536 500 q 456 660 456 715 q 456 759 495 783 q 528 804 575 804 q 616 804 675 783 q 714 769 729 746 q 744 722 744 679 z"},"+":{"x_min":0,"x_max":610,"ha":610,"o":"m 597 372 q 597 343 584 319 q 568 291 542 291 q 519 291 475 310 q 431 329 407 329 q 384 329 368 314 q 353 298 353 275 q 353 253 370 212 q 388 170 388 148 q 388 121 357 104 q 331 89 301 89 q 271 89 244 104 q 213 121 213 149 q 213 170 230 212 q 248 253 248 275 q 248 299 232 314 q 217 330 194 330 q 169 330 124 310 q 78 290 55 290 q 28 290 13 319 q 0 343 0 372 q 0 401 13 425 q 28 454 54 454 q 78 454 124 434 q 169 414 194 414 q 217 414 232 429 q 247 444 247 467 q 247 487 231 526 q 215 565 215 585 q 215 612 245 629 q 271 644 301 644 q 330 644 356 629 q 386 612 386 585 q 386 565 370 526 q 354 487 354 467 q 354 444 369 429 q 384 414 407 414 q 430 414 474 434 q 519 453 543 453 q 568 453 584 424 q 597 401 597 372 z"},"G":{"x_min":0,"x_max":709,"ha":709,"o":"m 701 105 q 701 65 645 31 q 595 0 552 0 q 536 0 524 10 q 511 21 511 37 q 511 44 514 58 q 518 73 518 80 q 518 114 494 114 q 477 114 446 86 q 400 44 385 34 q 345 6 304 6 q 165 6 78 139 q 1 256 1 402 q 1 596 151 706 q 285 803 487 803 q 540 803 577 768 q 626 722 626 674 q 626 650 616 621 q 604 583 585 583 q 568 583 522 605 q 476 627 464 627 q 437 627 410 618 q 383 610 357 601 q 254 569 223 488 q 203 438 203 307 q 203 235 264 180 q 325 124 398 124 q 447 124 494 168 q 542 211 542 259 q 542 283 490 333 q 438 383 438 406 q 438 437 469 457 q 496 474 529 474 q 575 474 616 456 q 667 433 667 393 q 667 363 649 308 q 631 254 631 224 q 631 193 666 158 q 701 124 701 105 z"},"q":{"x_min":0,"x_max":593,"ha":593,"o":"m 575 469 q 575 403 522 276 q 470 150 470 84 q 470 31 511 -3 q 556 -40 561 -82 q 567 -133 511 -168 q 467 -195 430 -195 q 401 -195 379 -181 q 353 -166 353 -138 q 353 -111 376 -61 q 399 -11 399 15 q 399 57 352 57 q 330 57 290 29 q 250 1 220 1 q 118 1 55 97 q 0 181 0 288 q 0 485 218 574 q 289 603 352 603 q 436 603 522 559 q 575 532 575 469 z m 376 298 q 376 365 337 410 q 298 456 232 456 q 157 456 118 398 q 85 348 85 270 q 85 199 110 151 q 142 89 207 89 q 249 89 298 126 q 376 187 376 298 z"},"d":{"x_min":0,"x_max":567,"ha":567,"o":"m 558 664 q 558 598 518 462 q 479 327 479 267 q 479 250 518 188 q 557 126 557 96 q 557 69 531 56 q 518 49 482 43 q 466 40 443 22 q 420 4 404 4 q 374 4 374 43 q 374 49 380 61 q 386 73 386 79 q 386 90 378 112 q 371 133 362 133 q 349 133 302 68 q 256 2 222 2 q 119 2 55 99 q 0 183 0 291 q 0 397 54 482 q 116 579 216 579 q 254 579 276 551 q 298 523 322 523 q 365 523 365 559 q 365 585 340 642 q 314 700 314 730 q 314 759 341 776 q 364 790 395 790 q 424 790 489 773 q 558 755 558 664 z m 322 175 q 322 212 292 287 q 268 347 255 366 q 226 406 182 406 q 128 406 101 341 q 81 292 81 229 q 81 161 105 115 q 136 56 198 56 q 247 56 284 91 q 322 126 322 175 z"},"1":{"x_min":0,"x_max":436,"ha":436,"o":"m 432 657 q 432 613 409 526 q 386 439 386 394 q 386 352 396 268 q 406 184 406 142 q 406 65 371 31 q 336 -3 257 -3 q 112 -3 112 100 q 112 173 177 320 q 242 466 242 531 q 242 597 174 597 q 147 597 108 574 q 68 551 51 551 q 25 551 11 579 q 0 601 0 630 q 0 653 24 669 q 47 680 69 690 q 98 705 118 720 q 139 735 180 786 q 195 804 217 804 q 240 804 284 787 q 346 761 350 760 q 432 735 432 657 z"},"5":{"x_min":0,"x_max":578,"ha":578,"o":"m 578 262 q 578 158 484 91 q 412 40 294 17 q 205 -1 165 -1 q 89 -1 57 57 q 35 97 35 133 q 35 158 48 181 q 64 209 87 209 q 107 209 190 144 q 272 78 302 78 q 357 78 409 110 q 468 147 468 199 q 468 255 417 304 q 373 348 314 365 q 311 366 290 374 q 270 382 265 382 q 236 382 178 372 q 121 361 92 361 q 0 361 0 541 q 0 685 91 775 q 112 783 145 783 q 197 783 248 758 q 376 806 459 806 q 507 806 525 778 q 540 756 540 704 q 540 672 501 614 q 460 553 430 553 q 396 553 338 584 q 279 615 245 615 q 188 615 188 550 q 188 536 191 509 q 194 482 194 469 q 194 427 234 427 q 250 427 290 432 q 329 438 350 438 q 446 438 507 399 q 578 353 578 262 z"}}}
